<?xml version="1.0" standalone="no"?><!DOCTYPE svg PUBLIC "-//W3C//DTD SVG 1.1//EN" "http://www.w3.org/Graphics/SVG/1.1/DTD/svg11.dtd"><svg width="100%" height="100%" viewBox="0 0 948 219" version="1.1" xmlns="http://www.w3.org/2000/svg" xmlns:xlink="http://www.w3.org/1999/xlink" xml:space="preserve" style="fill-rule:evenodd;clip-rule:evenodd;stroke-linejoin:round;stroke-miterlimit:1.41421;"><g><path d="M329.137,96.577c4.247,0 7.506,-1.006 9.779,-3.018c2.273,-2.012 3.41,-4.695 3.41,-8.048l0,-0.223c0,-3.725 -1.193,-6.52 -3.577,-8.383c-2.386,-1.862 -5.701,-2.794 -9.947,-2.794l-17.102,0l0,22.466l17.437,0ZM294.487,58.574l35.767,0c9.909,0 17.51,2.645 22.802,7.936c4.471,4.47 6.707,10.433 6.707,17.883l0,0.224c0,6.335 -1.548,11.495 -4.64,15.481c-3.092,3.987 -7.135,6.912 -12.126,8.773l19.113,27.944l-20.119,0l-16.767,-25.037l-0.223,0l-13.301,0l0,25.037l-17.213,0l0,-78.241Z" style="fill:#58595b;fill-rule:nonzero;"/><rect x="376.08" y="58.574" width="17.213" height="78.241" style="fill:#58595b;fill-rule:nonzero;"/><path d="M406.147,58.574l19.002,0l20.454,55.104l20.454,-55.104l18.554,0l-31.632,78.8l-15.201,0l-31.631,-78.8Z" style="fill:#58595b;fill-rule:nonzero;"/><path d="M496.683,58.574l58.904,0l0,15.313l-41.915,0l0,15.872l36.885,0l0,15.312l-36.885,0l0,16.431l42.474,0l0,15.313l-59.463,0l0,-78.241Z" style="fill:#58595b;fill-rule:nonzero;"/><path d="M606.22,96.577c4.247,0 7.506,-1.006 9.78,-3.018c2.272,-2.012 3.41,-4.695 3.41,-8.048l0,-0.223c0,-3.725 -1.194,-6.52 -3.577,-8.383c-2.385,-1.862 -5.7,-2.794 -9.949,-2.794l-17.099,0l0,22.466l17.435,0ZM571.571,58.574l35.767,0c9.909,0 17.51,2.645 22.801,7.936c4.472,4.47 6.706,10.433 6.706,17.883l0,0.224c0,6.335 -1.546,11.495 -4.638,15.481c-3.092,3.987 -7.135,6.912 -12.127,8.773l19.113,27.944l-20.119,0l-16.766,-25.037l-0.223,0l-13.3,0l0,25.037l-17.214,0l0,-78.241Z" style="fill:#58595b;fill-rule:nonzero;"/><path d="M722.573,138.156c-5.739,0 -11.066,-1.044 -15.984,-3.129c-4.917,-2.085 -9.166,-4.935 -12.742,-8.551c-3.577,-3.614 -6.37,-7.88 -8.382,-12.798c-2.012,-4.918 -3.018,-10.172 -3.018,-15.76l0,-0.223c0,-5.589 1.006,-10.823 3.018,-15.704c2.012,-4.88 4.805,-9.166 8.382,-12.855c3.576,-3.689 7.86,-6.594 12.855,-8.718c4.991,-2.124 10.505,-3.185 16.541,-3.185c3.651,0 6.986,0.298 10.004,0.893c3.018,0.598 5.756,1.417 8.215,2.46c2.459,1.044 4.731,2.31 6.819,3.8c2.085,1.491 4.024,3.13 5.812,4.918l-10.953,12.631c-3.057,-2.756 -6.168,-4.919 -9.334,-6.483c-3.168,-1.565 -6.726,-2.347 -10.674,-2.347c-3.28,0 -6.315,0.633 -9.11,1.899c-2.793,1.269 -5.197,3.018 -7.209,5.254c-2.012,2.235 -3.576,4.826 -4.694,7.768c-1.119,2.945 -1.678,6.092 -1.678,9.445l0,0.224c0,3.352 0.559,6.52 1.678,9.5c1.118,2.981 2.662,5.589 4.639,7.825c1.973,2.235 4.358,4.006 7.153,5.309c2.793,1.305 5.867,1.955 9.221,1.955c4.471,0 8.252,-0.818 11.344,-2.458c3.092,-1.638 6.166,-3.874 9.223,-6.707l10.952,11.066c-2.012,2.162 -4.098,4.099 -6.258,5.812c-2.163,1.715 -4.527,3.186 -7.098,4.415c-2.571,1.229 -5.384,2.162 -8.439,2.795c-3.055,0.632 -6.484,0.949 -10.283,0.949Z" style="fill:#58595b;fill-rule:nonzero;"/><rect x="769.181" y="58.574" width="17.213" height="78.241" style="fill:#58595b;fill-rule:nonzero;"/><path d="M824.172,74.446l-23.806,0l0,-15.872l64.827,0l0,15.872l-23.808,0l0,62.369l-17.213,0l0,-62.369Z" style="fill:#58595b;fill-rule:nonzero;"/><path d="M900.402,105.966l-30.066,-47.392l20.118,0l18.666,31.409l19.002,-31.409l19.56,0l-30.067,47.057l0,31.184l-17.213,0l0,-30.849Z" style="fill:#58595b;fill-rule:nonzero;"/><path d="M308.975,187.163c-2.05,0 -3.95,-0.384 -5.699,-1.148c-1.749,-0.765 -3.259,-1.811 -4.53,-3.137c-1.271,-1.325 -2.262,-2.89 -2.972,-4.694c-0.712,-1.804 -1.066,-3.731 -1.066,-5.781l0,-0.082c0,-2.022 0.362,-3.936 1.086,-5.74c0.724,-1.803 1.722,-3.382 2.993,-4.735c1.271,-1.353 2.781,-2.419 4.53,-3.198c1.749,-0.779 3.663,-1.168 5.74,-1.168c1.284,0 2.446,0.109 3.486,0.327c1.038,0.219 2.001,0.534 2.889,0.943c0.889,0.41 1.723,0.896 2.501,1.456c0.779,0.561 1.538,1.183 2.276,1.866l-1.517,1.558c-0.63,-0.602 -1.285,-1.162 -1.968,-1.682c-0.684,-0.519 -1.414,-0.963 -2.194,-1.332c-0.778,-0.369 -1.626,-0.662 -2.542,-0.881c-0.915,-0.219 -1.906,-0.329 -2.972,-0.329c-1.721,0 -3.32,0.329 -4.797,0.984c-1.476,0.656 -2.753,1.566 -3.833,2.727c-1.08,1.162 -1.927,2.521 -2.542,4.079c-0.615,1.558 -0.922,3.239 -0.922,5.043l0,0.082c0,1.804 0.314,3.492 0.943,5.064c0.628,1.572 1.482,2.938 2.562,4.099c1.079,1.163 2.357,2.078 3.834,2.747c1.475,0.67 3.074,1.005 4.796,1.005c2.077,0 3.881,-0.382 5.412,-1.148c1.53,-0.765 3.02,-1.872 4.469,-3.321l1.435,1.394c-0.765,0.738 -1.551,1.415 -2.358,2.029c-0.806,0.616 -1.667,1.142 -2.583,1.579c-0.916,0.438 -1.906,0.778 -2.972,1.025c-1.065,0.246 -2.228,0.369 -3.485,0.369Z" style="fill:#58595b;fill-rule:nonzero;"/><path d="M351.736,185.236c1.776,0 3.41,-0.335 4.899,-1.005c1.49,-0.669 2.774,-1.584 3.854,-2.747c1.079,-1.161 1.92,-2.521 2.522,-4.079c0.6,-1.558 0.902,-3.224 0.902,-5.002l0,-0.082c0,-1.776 -0.308,-3.45 -0.923,-5.022c-0.615,-1.572 -1.462,-2.938 -2.542,-4.1c-1.08,-1.162 -2.372,-2.084 -3.874,-2.767c-1.504,-0.683 -3.143,-1.026 -4.92,-1.026c-1.777,0 -3.41,0.335 -4.9,1.005c-1.489,0.67 -2.774,1.585 -3.853,2.747c-1.08,1.162 -1.921,2.522 -2.521,4.079c-0.603,1.558 -0.902,3.226 -0.902,5.002l0,0.082c0,1.777 0.307,3.451 0.922,5.022c0.614,1.572 1.462,2.939 2.542,4.1c1.079,1.162 2.37,2.085 3.875,2.768c1.502,0.684 3.142,1.025 4.919,1.025ZM351.654,187.163c-2.187,0 -4.162,-0.404 -5.924,-1.209c-1.763,-0.807 -3.274,-1.886 -4.531,-3.239c-1.257,-1.353 -2.228,-2.918 -2.911,-4.695c-0.683,-1.776 -1.025,-3.649 -1.025,-5.617l0,-0.082c0,-1.968 0.349,-3.847 1.046,-5.637c0.697,-1.79 1.674,-3.369 2.931,-4.736c1.257,-1.366 2.774,-2.453 4.551,-3.259c1.776,-0.806 3.758,-1.209 5.945,-1.209c2.159,0 4.127,0.403 5.904,1.209c1.776,0.806 3.293,1.886 4.55,3.239c1.258,1.353 2.228,2.917 2.912,4.695c0.683,1.776 1.025,3.649 1.025,5.616l0,0.082c0,1.968 -0.349,3.847 -1.046,5.638c-0.697,1.79 -1.674,3.368 -2.932,4.735c-1.257,1.367 -2.781,2.453 -4.571,3.26c-1.79,0.805 -3.765,1.209 -5.924,1.209Z" style="fill:#58595b;fill-rule:nonzero;"/><path d="M385.683,157.972l2.009,0l11.52,16.973l11.521,-16.973l2.009,0l0,28.699l-2.132,0l0,-24.928l-11.356,16.523l-0.164,0l-11.358,-16.523l0,24.928l-2.049,0l0,-28.699Z" style="fill:#58595b;fill-rule:nonzero;"/><path d="M433.57,157.972l2.008,0l11.521,16.973l11.52,-16.973l2.009,0l0,28.699l-2.131,0l0,-24.928l-11.357,16.523l-0.164,0l-11.357,-16.523l0,24.928l-2.049,0l0,-28.699Z" style="fill:#58595b;fill-rule:nonzero;"/><path d="M492.772,187.122c-1.722,0 -3.3,-0.266 -4.734,-0.8c-1.437,-0.533 -2.681,-1.325 -3.733,-2.378c-1.052,-1.051 -1.865,-2.343 -2.439,-3.874c-0.573,-1.531 -0.861,-3.307 -0.861,-5.33l0,-16.768l2.133,0l0,16.563c0,3.417 0.853,6.047 2.561,7.893c1.709,1.845 4.094,2.767 7.155,2.767c1.448,0 2.76,-0.219 3.937,-0.656c1.175,-0.437 2.179,-1.093 3.012,-1.968c0.834,-0.874 1.476,-1.968 1.927,-3.28c0.451,-1.312 0.677,-2.828 0.677,-4.551l0,-16.768l2.131,0l0,16.522c0,2.05 -0.286,3.861 -0.859,5.433c-0.576,1.572 -1.381,2.89 -2.421,3.956c-1.039,1.065 -2.275,1.873 -3.71,2.419c-1.435,0.546 -3.027,0.82 -4.776,0.82Z" style="fill:#58595b;fill-rule:nonzero;"/><path d="M524.914,157.972l2.01,0l19.802,24.968l0,-24.968l2.049,0l0,28.699l-1.598,0l-20.212,-25.501l0,25.501l-2.051,0l0,-28.699Z" style="fill:#58595b;fill-rule:nonzero;"/><rect x="569.89" y="157.972" width="2.132" height="28.699" style="fill:#58595b;fill-rule:nonzero;"/><path d="M601.09,159.898l-10.004,0l0,-1.926l22.139,0l0,1.926l-10.004,0l0,26.773l-2.131,0l0,-26.773Z" style="fill:#58595b;fill-rule:nonzero;"/><path d="M641.352,175.314l-12.3,-17.342l2.665,0l10.741,15.415l10.782,-15.415l2.543,0l-12.3,17.301l0,11.398l-2.131,0l0,-11.357Z" style="fill:#58595b;fill-rule:nonzero;"/><path d="M711.253,187.163c-2.051,0 -3.952,-0.384 -5.7,-1.148c-1.748,-0.765 -3.259,-1.811 -4.531,-3.137c-1.269,-1.325 -2.26,-2.89 -2.971,-4.694c-0.711,-1.804 -1.066,-3.731 -1.066,-5.781l0,-0.082c0,-2.022 0.362,-3.936 1.086,-5.74c0.724,-1.803 1.723,-3.382 2.992,-4.735c1.272,-1.353 2.782,-2.419 4.531,-3.198c1.748,-0.779 3.662,-1.168 5.741,-1.168c1.284,0 2.444,0.109 3.483,0.327c1.04,0.219 2.003,0.534 2.892,0.943c0.887,0.41 1.721,0.896 2.5,1.456c0.78,0.561 1.537,1.183 2.276,1.866l-1.517,1.558c-0.629,-0.602 -1.286,-1.162 -1.969,-1.682c-0.683,-0.519 -1.414,-0.963 -2.192,-1.332c-0.779,-0.369 -1.628,-0.662 -2.543,-0.881c-0.915,-0.219 -1.906,-0.329 -2.971,-0.329c-1.723,0 -3.323,0.329 -4.798,0.984c-1.476,0.656 -2.755,1.566 -3.833,2.727c-1.08,1.162 -1.926,2.521 -2.543,4.079c-0.614,1.558 -0.922,3.239 -0.922,5.043l0,0.082c0,1.804 0.313,3.492 0.943,5.064c0.629,1.572 1.483,2.938 2.563,4.099c1.08,1.163 2.357,2.078 3.833,2.747c1.475,0.67 3.075,1.005 4.798,1.005c2.077,0 3.881,-0.382 5.41,-1.148c1.531,-0.765 3.02,-1.872 4.469,-3.321l1.435,1.394c-0.765,0.738 -1.552,1.415 -2.357,2.029c-0.806,0.616 -1.667,1.142 -2.582,1.579c-0.917,0.438 -1.908,0.778 -2.973,1.025c-1.066,0.246 -2.228,0.369 -3.484,0.369Z" style="fill:#58595b;fill-rule:nonzero;"/><path d="M740.813,157.972l2.132,0l0,13.324l18.368,0l0,-13.324l2.13,0l0,28.699l-2.13,0l0,-13.448l-18.368,0l0,13.448l-2.132,0l0,-28.699Z" style="fill:#58595b;fill-rule:nonzero;"/><path d="M795.589,187.122c-1.723,0 -3.3,-0.266 -4.735,-0.8c-1.437,-0.533 -2.68,-1.325 -3.733,-2.378c-1.052,-1.051 -1.865,-2.343 -2.439,-3.874c-0.573,-1.531 -0.861,-3.307 -0.861,-5.33l0,-16.768l2.133,0l0,16.563c0,3.417 0.854,6.047 2.561,7.893c1.71,1.845 4.095,2.767 7.155,2.767c1.448,0 2.76,-0.219 3.937,-0.656c1.175,-0.437 2.179,-1.093 3.012,-1.968c0.834,-0.874 1.476,-1.968 1.927,-3.28c0.451,-1.312 0.677,-2.828 0.677,-4.551l0,-16.768l2.131,0l0,16.522c0,2.05 -0.286,3.861 -0.859,5.433c-0.576,1.572 -1.381,2.89 -2.421,3.956c-1.039,1.065 -2.275,1.873 -3.71,2.419c-1.434,0.546 -3.027,0.82 -4.775,0.82Z" style="fill:#58595b;fill-rule:nonzero;"/><path d="M839.54,172.854c1.203,0 2.316,-0.15 3.341,-0.453c1.025,-0.3 1.906,-0.732 2.645,-1.294c0.739,-0.562 1.318,-1.248 1.743,-2.058c0.423,-0.808 0.635,-1.733 0.635,-2.776l0,-0.082c0,-1.946 -0.717,-3.482 -2.154,-4.606c-1.434,-1.124 -3.463,-1.687 -6.087,-1.687l-9.799,0l0,12.956l9.676,0ZM827.732,157.972l12.053,0c1.778,0 3.348,0.253 4.716,0.758c1.366,0.506 2.487,1.196 3.362,2.07c0.683,0.684 1.215,1.483 1.6,2.399c0.382,0.916 0.573,1.893 0.573,2.931l0,0.082c0,1.203 -0.211,2.276 -0.637,3.219c-0.423,0.943 -1.011,1.757 -1.761,2.439c-0.753,0.684 -1.641,1.237 -2.665,1.661c-1.025,0.424 -2.14,0.717 -3.343,0.882l9.472,12.258l-2.707,0l-9.143,-11.89l-0.081,0l-9.307,0l0,11.89l-2.132,0l0,-28.699Z" style="fill:#58595b;fill-rule:nonzero;"/><path d="M882.669,187.163c-2.051,0 -3.951,-0.384 -5.7,-1.148c-1.748,-0.765 -3.259,-1.811 -4.53,-3.137c-1.27,-1.325 -2.261,-2.89 -2.972,-4.694c-0.711,-1.804 -1.065,-3.731 -1.065,-5.781l0,-0.082c0,-2.022 0.362,-3.936 1.086,-5.74c0.723,-1.803 1.722,-3.382 2.992,-4.735c1.271,-1.353 2.782,-2.419 4.53,-3.198c1.749,-0.779 3.662,-1.168 5.741,-1.168c1.284,0 2.444,0.109 3.484,0.327c1.039,0.219 2.002,0.534 2.892,0.943c0.887,0.41 1.72,0.896 2.5,1.456c0.779,0.561 1.537,1.183 2.275,1.866l-1.516,1.558c-0.629,-0.602 -1.286,-1.162 -1.969,-1.682c-0.683,-0.519 -1.415,-0.963 -2.192,-1.332c-0.78,-0.369 -1.628,-0.662 -2.543,-0.881c-0.915,-0.219 -1.906,-0.329 -2.972,-0.329c-1.722,0 -3.322,0.329 -4.798,0.984c-1.475,0.656 -2.754,1.566 -3.833,2.727c-1.08,1.162 -1.926,2.521 -2.542,4.079c-0.615,1.558 -0.923,3.239 -0.923,5.043l0,0.082c0,1.804 0.314,3.492 0.943,5.064c0.629,1.572 1.483,2.938 2.563,4.099c1.081,1.163 2.358,2.078 3.833,2.747c1.476,0.67 3.076,1.005 4.798,1.005c2.077,0 3.881,-0.382 5.41,-1.148c1.532,-0.765 3.02,-1.872 4.47,-3.321l1.435,1.394c-0.765,0.738 -1.552,1.415 -2.358,2.029c-0.805,0.616 -1.666,1.142 -2.581,1.579c-0.917,0.438 -1.908,0.778 -2.974,1.025c-1.065,0.246 -2.227,0.369 -3.484,0.369Z" style="fill:#58595b;fill-rule:nonzero;"/><path d="M912.229,157.972l2.133,0l0,13.324l18.367,0l0,-13.324l2.131,0l0,28.699l-2.131,0l0,-13.448l-18.367,0l0,13.448l-2.133,0l0,-28.699Z" style="fill:#58595b;fill-rule:nonzero;"/><path d="M107.308,55.275l0,1.53l-25.439,0l90.505,49.779l0,-47.587l-41.955,0l0,-3.722l-23.111,0Z" style="fill:#7ab7b0;fill-rule:nonzero;"/><path d="M0.211,11.892l0.422,0.232l76.454,42.051l30.221,0l0,1.315l23.111,0l0,-3.507l41.955,0l0,-36.138c-0.826,0.039 -1.313,0.892 -2.034,1.154c-0.328,-0.241 -0.628,-0.46 -0.898,-0.658c-0.845,0.081 -1.653,0.158 -2.462,0.236c-0.054,0.285 -0.109,0.57 -0.164,0.855c-0.419,-0.023 -0.838,-0.045 -1.257,-0.068c-0.3,-0.302 -0.599,-0.603 -0.899,-0.905c-0.149,-0.151 -0.297,-0.301 -0.446,-0.452c-0.465,0.277 -0.93,0.554 -1.395,0.831c-0.064,0.411 -0.128,0.822 -0.248,1.591c-0.537,-0.546 -0.852,-0.866 -1.167,-1.186c-0.282,-0.165 -0.564,-0.33 -0.846,-0.495c-0.304,0.127 -0.608,0.254 -0.912,0.382c-0.318,-0.453 -0.636,-0.906 -0.954,-1.359c-0.631,0.141 -1.14,-1.03 -1.838,-0.172c-0.887,0.045 -1.774,0.09 -2.633,0.134c-0.895,-0.57 -1.778,-1.132 -2.66,-1.694c-0.396,-0.556 -0.931,-0.804 -1.669,-0.885c0.036,1.133 0.066,2.102 0.098,3.119c-0.803,0.303 -1.507,0.569 -2.212,0.834l0.003,0.002c-0.445,0.26 -0.889,0.521 -1.334,0.781c-1.923,0.072 -3.836,0.156 -5.646,0.959c-0.447,0.198 -1.027,0.078 -1.535,0.166c-0.407,0.071 -0.798,0.235 -1.196,0.357c-0.545,0.187 -1.089,0.374 -1.681,0.577c-1.234,-1.419 -2.761,-1.705 -4.33,-1.659c-0.959,1.383 -1.843,2.66 -2.727,3.936c-0.617,0.42 -1.233,0.84 -1.808,1.232c-2.684,-0.032 -2.684,-0.032 -4.017,-0.936c0.04,-0.925 0.079,-1.805 0.117,-2.67c0.775,-0.1 1.415,-0.183 2.297,-0.297c-1.019,-1.426 0.355,-1.754 0.857,-2.489c0.033,-0.643 0.296,-1.325 -0.322,-1.855c-0.417,-0.287 -0.818,-0.601 -1.255,-0.854c-0.801,-0.462 -1.623,-0.888 -2.579,-1.406c-0.17,0.168 -0.464,0.46 -0.666,0.66c-0.082,1.018 0.87,1.844 -0.036,2.752c-0.455,0.002 -0.97,0.004 -1.485,0.005c-0.649,-0.068 -1.298,-0.137 -1.783,-0.188c-0.697,-0.672 -1.268,-1.222 -1.839,-1.773c-0.373,-0.235 -0.746,-0.469 -1.259,-0.792c-0.905,1.231 -1.673,2.275 -2.44,3.318c-0.861,0.587 -0.251,1.218 -0.054,1.837c-0.172,0.298 -0.344,0.596 -0.547,0.949c0.344,0.314 0.645,0.59 0.947,0.866c-0.279,0.746 0.494,1.568 -0.166,2.286c-0.754,0.123 -1.507,0.245 -2.261,0.367c-0.312,-0.002 -0.624,-0.003 -0.936,-0.005c-0.851,-0.572 -1.347,-1.718 -2.612,-1.624c-1.258,-1.68 -2.937,-1.545 -4.77,-1.019c-0.37,-0.451 -0.739,-0.9 -1.089,-1.326c0.34,-1.236 0.649,-2.362 1.015,-3.693c-1.498,0.142 -2.778,0.285 -3.707,1.768c0.082,0.716 0.183,1.59 0.309,2.688c-0.517,0.243 -1.231,0.881 -1.652,0.725c-1.417,-0.525 -2.805,-0.051 -4.19,-0.18c-0.502,-0.683 -1.07,-0.42 -1.549,-0.03c-0.743,0.606 -1.495,0.547 -2.123,0.29c-0.456,-0.91 -0.75,-1.744 -1.251,-2.426c-0.493,-0.669 -1.04,-1.557 -2.2,-0.975c-0.435,1.313 0.483,3.242 -1.793,3.727c-0.332,-0.131 -0.744,-0.293 -1.155,-0.455c-0.267,-0.192 -0.534,-0.385 -0.801,-0.577c-0.613,-0.599 -1.225,-1.197 -1.837,-1.796c-1.142,-1.311 -2.283,-2.622 -3.424,-3.934c-0.268,-0.453 -0.536,-0.907 -0.804,-1.36c0.048,-0.925 -0.304,-1.56 -1.181,-1.989c-0.79,-0.385 -1.484,-0.962 -2.239,-1.423c-0.698,-0.426 -1.429,-0.799 -2.132,-1.219c-0.665,-0.397 -1.312,-0.823 -1.763,-1.108c-0.902,0.113 -1.769,0.473 -2.453,0.255c-1.34,-0.426 -2.116,0.156 -2.887,1.039c-0.09,0.104 -0.267,0.132 -0.517,0.247c-0.481,-0.096 -1.057,-0.211 -1.429,-0.285c-1.778,0.615 -3.389,1.172 -4.963,1.716c-0.944,-0.211 -1.84,-0.963 -2.737,-0.016c-0.17,0.301 -0.34,0.602 -0.51,0.904c-0.778,0.608 -1.08,1.855 -2.377,1.764c-1.586,-0.331 -3.172,-1.018 -4.772,-0.003c-0.731,-0.977 -0.489,-2.593 -2.117,-3.059c-2.149,0.276 -1.567,2.826 -3.109,3.838c-0.197,0.016 -0.564,0.046 -0.932,0.075c-0.6,0.002 -1.22,-0.094 -1.796,0.027c-1.246,0.262 -2.381,0.02 -3.447,-0.588c-0.784,-0.446 -1.479,-1.06 -2.288,-1.443c-0.758,-0.359 -1.678,-0.394 -2.407,-0.791c-0.72,-0.392 -1.338,-0.525 -2.112,-0.258c-0.48,0.166 -1.019,0.16 -1.513,0.229c-1.773,-1.618 -3.644,-2.889 -5.996,-3.481c-0.256,0.998 -0.545,1.777 -0.62,2.576c-0.032,0.344 0.382,0.729 0.593,1.095c0.002,0.729 0.004,1.458 0.006,1.859c-0.796,0.849 -1.354,1.446 -1.909,2.037c-0.818,-0.036 -1.533,-0.067 -2.458,-0.107c-0.045,-0.731 -0.041,-1.379 -0.14,-2.01c-0.062,-0.396 -0.28,-0.768 -0.427,-1.151c-0.596,-0.303 -1.191,-0.606 -1.993,-1.014c0.781,-0.532 1.356,-0.865 1.864,-1.281c0.781,-0.638 1.119,-1.396 0.371,-2.304c-0.54,-0.588 -0.427,-1.165 0.03,-1.737c0.678,-0.842 0.649,-0.994 -0.356,-1.875c-0.433,-0.617 -0.866,-1.234 -1.299,-1.851c-0.533,-1.134 -1.513,-1.458 -2.665,-1.47c-0.258,0.042 -0.516,0.083 -0.956,0.152c0.383,0.509 0.64,0.85 0.896,1.191c0.292,0.167 0.584,0.334 0.876,0.501c0.368,0.666 1.517,0.8 1.28,1.878c-0.341,0.461 -0.681,0.922 -1.022,1.383c-1.274,0.037 -2.548,0.074 -3.74,0.108c-1.681,0.258 -1.397,-1.846 -2.956,-2.123c-0.571,0.545 -1.183,1.302 -1.956,1.818c-0.845,0.565 -1.838,0.908 -2.796,1.361c0.323,1.207 0.592,2.215 0.894,3.345c-0.708,0.692 -1.425,1.392 -2.093,2.044Z" style="fill:#b7c247;fill-rule:nonzero;"/><path d="M179.388,51.983l39.289,0c-0.041,-1.13 -0.035,-2.269 -0.269,-3.378c-0.433,-2.044 -1.147,-4.028 -1.247,-6.18c-0.059,-1.264 -0.915,-2.49 -1.413,-3.734c-0.387,-1.033 -0.487,-2.382 -1.214,-3.039c-2.213,-2.001 -3.334,-4.4 -3.697,-7.294c-0.057,-0.456 -0.705,-0.837 -1.079,-1.253l0.007,-0.015c-0.143,-0.579 -0.257,-1.167 -0.437,-1.734c-0.263,-0.829 -0.692,-1.511 -1.697,-1.536c-0.99,-0.998 -1.59,-2.403 -3.048,-2.909c-0.066,-0.275 -0.132,-0.549 -0.187,-0.78c-1.073,-0.155 -1.78,1.149 -2.891,0.443c-0.5,-1.204 1.881,-2.028 0.391,-3.461c-0.27,0.162 -0.552,0.347 -0.847,0.508c-0.969,0.53 -1.591,1.635 -2.834,1.708c-0.13,0.011 -0.258,0.002 -0.385,-0.028c-1.363,-0.885 -0.441,-2.506 -1.18,-3.851c-0.323,0.406 -0.519,0.682 -0.746,0.93c-1.559,1.706 -2.001,1.747 -3.912,0.385c-1.373,-0.711 -2.111,0.668 -3.066,1.088c-0.857,-0.702 -0.343,-2.411 -2.098,-2.174c-0.436,0.342 -0.96,0.752 -1.574,1.233c-0.609,-0.027 -1.277,-0.056 -1.945,-0.085c-0.295,-0.166 -0.589,-0.332 -0.883,-0.498c-0.186,-1.818 -1.527,-1.991 -3.038,-2.374l0,38.028Z" style="fill:#c96a2e;fill-rule:nonzero;"/><path d="M222.02,122.858c-0.113,-2.238 -0.321,-4.477 -0.311,-6.714c0.009,-1.778 -0.125,-3.523 -0.312,-5.288c-0.172,-1.625 -0.131,-3.323 0.148,-4.931c0.327,-1.89 0.014,-3.657 -0.376,-5.456c0.243,-2.633 0.582,-5.286 -1.352,-7.287c0.042,-0.963 0.066,-1.693 0.108,-2.422c0.083,-1.465 -0.019,-2.973 0.306,-4.383c0.6,-2.604 0.353,-5.055 -0.72,-7.455c-0.349,-0.78 -0.607,-1.526 -0.23,-2.385c0.083,-0.189 -0.111,-0.498 -0.187,-0.756l0.002,0c0.104,-0.659 0.177,-1.325 0.318,-1.976c0.285,-1.32 0.459,-2.632 -0.007,-3.947c0.492,-2.5 0.52,-4.972 -0.061,-7.488c-0.255,-1.107 -0.495,-2.238 -0.49,-3.373l-39.468,0l0,51.445l42.321,23.277c0.02,-0.433 0.121,-0.888 0.161,-1.323c0.055,-0.588 0.419,-1.428 0.16,-1.714c-1.041,-1.149 -0.684,-2.553 -0.972,-3.85c1.21,-1.098 1.719,-2.384 0.962,-3.974Z" style="fill:#8fb43e;fill-rule:nonzero;"/><path d="M226.368,183.417c0.212,-0.453 0.528,-1.125 0.733,-1.56c-0.275,-1.316 -0.72,-2.413 -0.681,-3.494c0.072,-1.995 -1.007,-3.729 -1.033,-5.686c-0.012,-0.87 -0.405,-1.731 -0.447,-2.605c-0.053,-1.123 0.074,-2.256 0.118,-3.268c-0.473,-0.903 -0.887,-1.692 -1.383,-2.639c1.208,-1.238 1.169,-2.609 0.453,-4.058c-0.149,-0.303 -0.018,-0.743 -0.017,-1.12c0.333,-0.847 -0.241,-1.505 -0.417,-2.257c-0.524,-2.239 -0.963,-4.505 -1.287,-6.781c-0.111,-0.784 0.257,-1.627 0.323,-2.449c0.047,-0.592 -0.032,-1.197 -0.078,-1.794c-0.062,-0.812 -0.298,-1.643 -0.194,-2.43c0.279,-2.101 0.216,-4.161 -0.112,-6.205l-42.958,-23.627l0,45.271l-3.717,0l-0.103,23.825l1.218,0l0,18.21c0.279,-0.142 0.553,-0.311 0.83,-0.492c0.672,0.015 1.199,-0.183 1.355,-0.925c-0.179,-0.457 -0.488,-0.857 -0.118,-1.416c0.219,-0.332 0.191,-0.827 0.274,-1.248c0.047,-0.587 0.094,-1.173 0.141,-1.76c0.569,0.151 1.137,0.303 1.7,0.453c0.639,-0.259 1.262,-0.511 1.902,-0.771c0.609,0.318 1.204,0.629 1.799,0.94c0.385,0.354 1.028,0.656 1.112,1.071c0.377,1.866 1.879,3.027 2.695,4.604l0.022,-0.025c0.279,0.618 0.558,1.237 0.837,1.855c-0.035,1.447 0.034,2.945 1.216,3.919c0.976,0.804 1.733,1.767 2.567,2.679c0.128,0.302 0.256,0.604 0.383,0.905c-0.122,1.184 0.779,1.856 1.36,2.97c0.785,-0.471 1.456,-0.875 1.935,-1.163c1.142,0.126 2.107,0.233 3.225,0.356c1.354,1.75 2.958,0.758 4.612,0.19c0.177,-0.606 0.338,-1.161 0.433,-1.487c0.779,-0.874 1.517,0.621 2.141,-0.301l0.029,0.039c0.575,-0.048 1.15,-0.097 1.789,-0.15c0.035,-0.818 0.064,-1.484 0.094,-2.161c0.672,-0.426 1.289,-0.817 2.061,-1.307c0.405,0.725 0.744,1.333 1.113,1.993c2.906,0.124 5.514,-0.892 8.162,-2.289c0.538,-1.023 0.494,-1.019 0.398,-2.089c-0.111,-1.246 -0.405,-2.535 0.469,-3.739c0.657,-0.064 1.313,-0.127 1.916,-0.185c0.334,-0.541 0.604,-1.062 0.953,-1.524c0.511,-0.675 0.705,-1.313 0.025,-1.984c0.182,-2.312 0.364,-4.624 0.567,-7.208c0.362,-0.201 0.98,-0.544 1.598,-0.887c0.295,-0.194 0.589,-0.388 0.834,-0.549c-0.285,-1.899 -0.549,-3.66 -0.847,-5.647Z" style="fill:#cb3a61;fill-rule:nonzero;"/><path d="M92.79,211.584c0.135,-0.216 0.271,-0.432 0.414,-0.66c-0.143,0.228 -0.278,0.444 -0.414,0.66ZM174.156,182.54l1.315,0l0,-23.825l-3.097,0l0,-49.129l-95.962,-52.781l-69.866,0l0.014,0.163c-0.581,0.733 -0.622,1.489 -0.095,2.268c0.294,1.846 1.563,2.893 3.069,3.745l-0.015,0.002c-0.054,1.19 -0.409,2.468 -0.093,3.55c0.516,1.764 -0.157,3.155 -0.762,4.639c-1.085,0.295 -1.14,0.442 -0.506,1.357c0.144,0.159 0.287,0.319 0.431,0.478c-0.452,0.745 -0.905,1.49 -1.443,2.377c0.348,0.52 0.749,1.121 1.126,1.686c-0.106,0.525 -0.21,1.042 -0.356,1.77c0.481,-0.374 0.738,-0.575 1.245,-0.969c-0.042,0.962 -0.069,1.585 -0.107,2.449c-0.289,-0.324 -0.434,-0.486 -0.74,-0.83c-0.453,0.666 -0.986,1.349 -1.384,2.102c-0.104,0.196 0.21,0.614 0.333,0.93c-0.036,0.816 -0.072,1.633 -0.108,2.458c0.649,-0.02 1.129,-0.034 1.517,-0.046c0.816,1.16 -0.713,1.217 -0.701,1.472c-0.076,1.751 -0.132,3.032 -0.188,4.312c-0.639,1.495 -0.745,3.922 -0.241,5.495c0.112,0.887 0.564,1.921 0.257,2.626c-0.445,1.022 -0.067,1.891 -0.092,2.822c-0.468,1.685 -0.776,3.336 -0.712,5.152c0.09,2.558 0.28,5.076 0.626,7.613c0.231,1.689 -0.05,3.379 -0.995,5.011c-1.096,1.89 -1.037,4.013 -0.053,5.723c-0.168,1.741 -0.312,3.227 -0.455,4.712c0.142,2.115 0.285,4.23 0.428,6.363c0.343,0.33 0.699,0.672 1.031,0.992c-0.174,0.366 -0.301,0.636 -0.429,0.905c-0.118,0.192 -0.282,0.369 -0.346,0.577c-0.36,1.186 -0.084,5.239 0.439,6.734c0.382,1.463 0.604,2.917 0.156,4.429c-0.134,0.45 0.077,1.002 0.13,1.508c0.118,0.44 0.236,0.88 0.354,1.32c-0.437,1.287 -0.171,2.595 -0.054,3.886c0.023,0.263 0.488,0.486 0.75,0.727c-0.258,0.598 -1.005,1.17 -0.097,1.831c0.022,0.137 0.034,0.274 0.036,0.413c-0.365,1.992 0.134,3.819 1.062,5.564c0.135,0.425 0.434,0.871 0.381,1.27c-0.397,2.953 0.744,5.727 0.949,8.606c0.029,0.414 0.282,0.813 0.431,1.219c-0.001,0.426 -0.002,0.852 -0.004,1.278c-0.6,1.064 -0.02,1.738 0.775,2.341c0.188,1.618 0.709,3.121 1.38,4.608c0.389,0.863 0.392,1.893 0.63,2.832c0.441,1.735 1.001,3.418 2.507,4.575c0.087,0.332 0.174,0.664 0.261,0.996c0.083,1.273 0.854,2.119 1.778,2.871c0.159,0.271 0.319,0.543 0.479,0.815c-0.011,0.303 -0.022,0.605 -0.033,0.908c-0.093,1.157 0.244,2.122 1.248,2.788c0.889,0.347 1.779,0.693 2.427,0.946c0.378,1.785 0.727,3.431 1.045,4.931c0.464,0.249 0.727,0.391 1.048,0.563c0.506,-0.379 1.036,-0.776 1.481,-1.109c0.933,0.041 1.747,0.077 2.504,0.11c0.282,0.345 0.511,0.627 0.741,0.909c0.042,0.649 0.264,1.161 1.097,1.337c1.148,-0.815 2.353,-1.67 3.523,-2.5c0.545,0.087 1.022,0.164 1.592,0.255c0.18,-0.672 0.329,-1.231 0.461,-1.724c0.719,-0.516 1.372,-0.985 1.841,-1.322c0.714,0.112 1.221,0.191 1.728,0.27c0.745,0.314 1.465,1.132 2.273,0.109c0.848,-0.105 1.735,-0.417 2.534,-0.266c1.154,0.217 2.264,0.188 3.399,0.061l0.187,0.076l0.201,0.008c0.265,0.247 0.53,0.495 0.818,0.764c0.052,0.62 0.105,1.267 0.147,1.771c0.781,0.699 1.436,1.284 2.037,1.821c-0.617,1.889 0.486,3.103 1.233,4.425c0.209,2.106 0.762,2.518 2.708,2.015c0.537,0.24 1.075,0.48 1.419,0.633c0.693,0.822 1.262,1.498 1.733,2.057c1.403,0.363 2.703,-0.286 3.871,0.393c0.769,1.09 1.792,1.738 3.077,1.876c0.529,-0.412 0.988,-0.769 1.3,-1.011c1.027,0.044 1.877,0.081 2.746,0.119c0.212,-0.768 0.396,-1.434 0.64,-2.319c0.67,0.441 1.134,0.773 1.623,1.06c0.508,0.298 1.032,0.636 1.633,0.184c0.641,0.18 1.282,0.36 2.095,0.589c0.523,-0.721 1.033,-1.425 1.67,-2.303c0.728,0.19 1.577,0.412 2.426,0.634c1.022,-0.566 2.044,-1.131 3.067,-1.695c0.784,-0.411 1.568,-0.822 2.017,-1.058c1.519,-0.182 2.685,-0.337 3.855,-0.451c0.365,-0.035 0.744,0.019 1.11,0.076c1.019,0.158 2.034,0.339 3.051,0.511c0.77,0.666 1.54,1.333 2.162,1.871c1.66,0.119 1.205,-1.504 2.212,-2.046c1.256,0.163 2.222,-0.552 2.777,-1.669c0.922,-0.008 1.707,-0.015 2.492,-0.022c0.343,0.634 0.685,1.268 1.075,1.99c0.671,-0.334 1.128,-0.561 1.514,-0.753c0.247,-0.741 0.457,-1.376 0.668,-2.01c0.296,0.013 0.591,0.026 0.887,0.04c-0.07,1.037 0.682,0.93 1.336,0.961c0.356,0.267 0.712,0.535 1.176,0.884c0.213,-0.267 0.427,-0.537 0.642,-0.808c0.608,-0.801 1.215,-1.602 1.823,-2.404c0.241,0.022 0.567,0.052 1.06,0.097c0.06,-1.369 0.111,-2.545 0.142,-3.262c0.856,-0.746 1.377,-1.2 1.899,-1.654c0.614,-0.533 1.229,-1.066 1.844,-1.599c1.108,-0.116 1.444,-1.328 2.386,-1.679c1.382,-0.34 2.15,0.673 2.808,1.279c1.039,-0.079 1.833,-0.139 2.627,-0.199l0.189,-0.007l0.187,0.026c0.272,0.251 0.654,0.451 0.795,0.761c0.377,0.833 0.972,0.79 1.665,0.603c0.04,-1.417 0.04,-1.417 1.638,-1.594c0.159,0.157 0.317,0.314 0.475,0.472c0.34,0.632 0.682,1.264 0.959,1.778c0.353,0 0.448,0.03 0.5,-0.005c1.206,-0.824 2.299,-1.888 4.015,-1.226c0.313,0.121 0.916,-0.376 1.324,-0.672c0.339,-0.245 0.587,-0.614 0.895,-0.949c1.07,0.443 1.501,2.031 3.086,1.321c0.378,-1.178 0.791,-2.467 1.235,-3.853c0.726,0.61 1.237,1.04 1.747,1.47l0.002,-0.001c0.166,1.187 1.419,1.368 2.223,2.142c-0.084,-0.77 -0.168,-1.54 -0.246,-2.243c0.52,-1.115 1.016,-2.178 1.46,-3.131c0.586,0.412 1.117,0.786 1.648,1.159c1.256,0.784 2.556,1.533 2.658,3.259c0.772,2.758 2.659,4.274 6.11,4.748c-0.042,-0.602 -0.131,-1.161 -0.097,-1.713c0.017,-0.26 0.271,-0.505 0.528,-0.949c0.41,0.819 0.695,1.389 0.981,1.959c0.572,0.832 1.032,1.8 2.24,1.871c1.097,0.221 1.787,-0.338 2.316,-1.207c1.168,-0.679 2.4,-0.373 3.621,-0.236c0.211,0.124 0.421,0.248 0.718,0.422c0.195,-0.737 0.343,-1.294 0.552,-2.085c1.069,-0.257 2.181,-0.525 3.352,-0.807c0.034,-0.339 0.07,-0.702 0.107,-1.065c0.547,-0.579 1.093,-1.157 1.65,-1.747c0.486,0.054 0.971,0.017 1.375,0.09l0,-18.041Z" style="fill:#58595b;fill-rule:nonzero;"/><path d="M0.584,14.934c0.014,0.177 0.03,0.372 0.044,0.542c0.751,1.073 1.436,2.052 2.152,3.075c-0.258,0.631 -0.48,1.173 -0.701,1.715l-0.008,-0.009c-1.459,0.18 -1.54,1.18 -1.396,2.398c0.94,1.168 2.386,2.001 2.838,3.63c0.232,0.838 0.624,1.631 0.944,2.444c0.125,0.583 0.25,1.166 0.375,1.748c-0.137,0.57 -0.534,1.235 -0.367,1.694c0.73,2.009 0.334,4.259 1.393,6.178c0.095,1.032 0.388,2.093 0.246,3.092c-0.328,2.306 -0.352,4.582 0.224,6.906l-0.004,0c0.108,1.79 0.215,3.58 0.323,5.37c0.013,0.163 0.027,0.326 0.04,0.489l65.299,0l-71.402,-39.272Z" style="fill:#d4a73b;fill-rule:nonzero;"/></g></svg>