<svg viewBox="0 0 948 219" xmlns="http://www.w3.org/2000/svg" fill-rule="evenodd" clip-rule="evenodd" stroke-linejoin="round" stroke-miterlimit="1.414"><g fill-rule="nonzero"><path d="M329.137 96.577c4.247 0 7.506-1.006 9.78-3.018 2.272-2.013 3.41-4.696 3.41-8.05v-.222c0-3.725-1.194-6.52-3.578-8.383-2.387-1.862-5.702-2.794-9.948-2.794H311.7v22.467h17.437zm-34.65-38.003h35.767c9.91 0 17.51 2.645 22.802 7.936 4.47 4.47 6.707 10.433 6.707 17.883v.224c0 6.335-1.548 11.495-4.64 15.48-3.092 3.988-7.135 6.913-12.126 8.774l19.113 27.945h-20.12l-16.766-25.037H311.7v25.037h-17.213v-78.24zM376.08 58.574h17.213v78.24H376.08zM406.147 58.574h19.002l20.453 55.104 20.454-55.104h18.554l-31.63 78.8h-15.202l-31.63-78.8zM496.683 58.574h58.904v15.313h-41.915V89.76h36.885v15.31h-36.885v16.432h42.474v15.313h-59.463v-78.24zM606.22 96.577c4.247 0 7.506-1.006 9.78-3.018 2.272-2.013 3.41-4.696 3.41-8.05v-.222c0-3.725-1.194-6.52-3.577-8.383-2.385-1.862-5.7-2.794-9.95-2.794h-17.098v22.467h17.435zm-34.65-38.003h35.768c9.91 0 17.51 2.645 22.8 7.936 4.473 4.47 6.707 10.433 6.707 17.883v.224c0 6.335-1.546 11.495-4.638 15.48-3.092 3.988-7.135 6.913-12.127 8.774l19.113 27.945h-20.12l-16.765-25.037H588.785v25.037H571.57v-78.24zM722.573 138.156c-5.74 0-11.066-1.044-15.984-3.13-4.918-2.084-9.167-4.934-12.743-8.55-3.577-3.614-6.37-7.88-8.382-12.798-2.012-4.918-3.018-10.172-3.018-15.76v-.223c0-5.59 1.006-10.823 3.018-15.704 2.012-4.88 4.805-9.165 8.382-12.854 3.576-3.69 7.86-6.594 12.855-8.718 4.99-2.124 10.505-3.185 16.54-3.185 3.652 0 6.987.298 10.005.893 3.018.598 5.756 1.417 8.215 2.46 2.46 1.044 4.73 2.31 6.82 3.8 2.084 1.49 4.023 3.13 5.81 4.918l-10.952 12.63c-3.057-2.755-6.168-4.918-9.334-6.482-3.168-1.565-6.726-2.347-10.674-2.347-3.28 0-6.315.633-9.11 1.9-2.793 1.268-5.197 3.017-7.21 5.253-2.01 2.235-3.575 4.826-4.693 7.768-1.12 2.945-1.68 6.092-1.68 9.445v.225c0 3.352.56 6.52 1.68 9.5 1.117 2.98 2.66 5.59 4.638 7.825 1.973 2.235 4.358 4.006 7.153 5.31 2.794 1.304 5.868 1.954 9.222 1.954 4.47 0 8.252-.818 11.344-2.458 3.092-1.638 6.166-3.874 9.223-6.707l10.95 11.065c-2.01 2.162-4.097 4.1-6.257 5.812-2.163 1.715-4.527 3.186-7.098 4.415-2.57 1.23-5.384 2.162-8.44 2.795-3.054.632-6.483.95-10.282.95zM769.18 58.574h17.214v78.24H769.18zM824.172 74.446h-23.806V58.574h64.827v15.872h-23.808v62.37h-17.213v-62.37zM900.402 105.966l-30.066-47.392h20.118l18.666 31.41 19.002-31.41h19.56l-30.067 47.057v31.185h-17.213v-30.85zM308.975 187.163c-2.05 0-3.95-.384-5.7-1.148-1.748-.765-3.258-1.81-4.53-3.137-1.27-1.325-2.26-2.89-2.97-4.694-.713-1.804-1.067-3.73-1.067-5.78v-.083c0-2.02.362-3.935 1.086-5.74.724-1.802 1.722-3.38 2.993-4.734 1.27-1.353 2.78-2.42 4.53-3.198 1.75-.78 3.663-1.168 5.74-1.168 1.284 0 2.446.11 3.486.327 1.038.22 2 .534 2.89.943.888.41 1.722.896 2.5 1.456.78.56 1.538 1.183 2.276 1.866l-1.518 1.558c-.63-.602-1.285-1.162-1.968-1.682-.684-.52-1.414-.963-2.194-1.332-.778-.37-1.626-.662-2.542-.88-.915-.22-1.906-.33-2.972-.33-1.72 0-3.32.33-4.797.984-1.477.656-2.754 1.566-3.834 2.727-1.08 1.162-1.927 2.52-2.542 4.08-.615 1.557-.922 3.238-.922 5.042v.08c0 1.805.314 3.493.943 5.065.628 1.572 1.482 2.938 2.562 4.1 1.08 1.162 2.357 2.077 3.834 2.746 1.476.67 3.075 1.006 4.797 1.006 2.077 0 3.88-.382 5.412-1.148 1.53-.765 3.02-1.872 4.468-3.32l1.435 1.393c-.765.74-1.55 1.416-2.358 2.03-.806.616-1.667 1.142-2.583 1.58-.916.437-1.906.777-2.972 1.024-1.065.246-2.228.37-3.485.37zM351.736 185.236c1.776 0 3.41-.335 4.9-1.005 1.49-.668 2.773-1.583 3.853-2.746 1.078-1.16 1.92-2.52 2.52-4.08.6-1.557.903-3.223.903-5v-.083c0-1.775-.308-3.45-.923-5.02-.615-1.573-1.462-2.94-2.542-4.1-1.08-1.163-2.372-2.085-3.874-2.768-1.504-.683-3.143-1.026-4.92-1.026-1.777 0-3.41.335-4.9 1.005-1.49.67-2.774 1.586-3.853 2.748-1.08 1.162-1.92 2.522-2.52 4.08-.603 1.557-.902 3.225-.902 5v.083c0 1.778.307 3.452.922 5.023.614 1.572 1.462 2.94 2.542 4.1 1.08 1.162 2.37 2.085 3.875 2.768 1.502.685 3.142 1.026 4.92 1.026zm-.082 1.927c-2.187 0-4.162-.404-5.924-1.21-1.763-.806-3.274-1.885-4.53-3.238-1.258-1.353-2.23-2.918-2.912-4.695-.683-1.776-1.025-3.65-1.025-5.617v-.082c0-1.967.35-3.846 1.046-5.636.696-1.79 1.673-3.37 2.93-4.736 1.257-1.366 2.774-2.453 4.55-3.26 1.777-.805 3.76-1.208 5.946-1.208 2.16 0 4.127.403 5.904 1.21 1.776.805 3.293 1.885 4.55 3.238 1.258 1.353 2.228 2.917 2.912 4.695.683 1.776 1.025 3.65 1.025 5.616v.08c0 1.97-.35 3.848-1.046 5.64-.696 1.79-1.673 3.367-2.93 4.734-1.258 1.367-2.782 2.453-4.572 3.26-1.79.805-3.765 1.21-5.924 1.21zM385.683 157.972h2.01l11.52 16.973 11.52-16.973h2.01v28.7h-2.133v-24.93l-11.356 16.524h-.164l-11.358-16.523v24.928h-2.05v-28.698zM433.57 157.972h2.008l11.52 16.973 11.52-16.973h2.01v28.7h-2.13v-24.93l-11.358 16.524h-.164l-11.357-16.523v24.928h-2.05v-28.698zM492.772 187.122c-1.722 0-3.3-.266-4.734-.8-1.437-.533-2.68-1.325-3.733-2.378-1.052-1.05-1.865-2.343-2.44-3.874-.572-1.53-.86-3.307-.86-5.33v-16.768h2.133v16.563c0 3.417.853 6.047 2.56 7.893 1.71 1.845 4.095 2.767 7.156 2.767 1.448 0 2.76-.22 3.937-.656 1.176-.438 2.18-1.094 3.013-1.97.834-.873 1.476-1.967 1.927-3.28.45-1.31.677-2.827.677-4.55v-16.768h2.13v16.522c0 2.05-.285 3.86-.858 5.433-.577 1.572-1.382 2.89-2.422 3.956-1.04 1.065-2.275 1.873-3.71 2.42-1.435.545-3.027.82-4.776.82zM524.914 157.972h2.01l19.802 24.968v-24.968h2.05v28.7h-1.6l-20.21-25.502v25.5h-2.052v-28.698zM569.89 157.972h2.132v28.7h-2.132zM601.09 159.898h-10.004v-1.926h22.14v1.926H603.22v26.773h-2.13V159.9zM641.352 175.314l-12.3-17.342h2.665l10.74 15.415 10.783-15.415h2.543l-12.3 17.3v11.4h-2.13v-11.358zM711.253 187.163c-2.05 0-3.952-.384-5.7-1.148-1.748-.765-3.26-1.81-4.53-3.137-1.27-1.325-2.26-2.89-2.972-4.694-.71-1.804-1.065-3.73-1.065-5.78v-.083c0-2.02.362-3.935 1.086-5.74.725-1.802 1.724-3.38 2.993-4.734 1.272-1.353 2.782-2.42 4.53-3.198 1.75-.78 3.663-1.168 5.742-1.168 1.284 0 2.444.11 3.483.327 1.04.22 2.003.534 2.892.943.887.41 1.72.896 2.5 1.456.78.56 1.537 1.183 2.276 1.866l-1.517 1.558c-.63-.602-1.287-1.162-1.97-1.682s-1.414-.963-2.192-1.332c-.78-.37-1.628-.662-2.543-.88-.915-.22-1.906-.33-2.97-.33-1.724 0-3.324.33-4.8.984-1.475.656-2.754 1.566-3.832 2.727-1.08 1.162-1.926 2.52-2.543 4.08-.614 1.557-.922 3.238-.922 5.042v.08c0 1.805.313 3.493.943 5.065.63 1.572 1.484 2.938 2.564 4.1 1.08 1.162 2.357 2.077 3.833 2.746 1.475.67 3.075 1.006 4.798 1.006 2.077 0 3.88-.382 5.41-1.148 1.53-.765 3.02-1.872 4.47-3.32l1.434 1.393c-.766.74-1.553 1.416-2.358 2.03-.806.616-1.667 1.142-2.582 1.58-.917.437-1.908.777-2.973 1.024-1.066.246-2.228.37-3.484.37zM740.813 157.972h2.132v13.324h18.368v-13.324h2.13v28.7h-2.13v-13.45h-18.368v13.45h-2.132v-28.7zM795.59 187.122c-1.724 0-3.3-.266-4.736-.8-1.437-.533-2.68-1.325-3.733-2.378-1.05-1.05-1.864-2.343-2.438-3.874-.573-1.53-.86-3.307-.86-5.33v-16.768h2.132v16.563c0 3.417.854 6.047 2.56 7.893 1.71 1.845 4.096 2.767 7.156 2.767 1.448 0 2.76-.22 3.937-.656 1.175-.438 2.18-1.094 3.012-1.97.833-.873 1.475-1.967 1.926-3.28.45-1.31.677-2.827.677-4.55v-16.768h2.13v16.522c0 2.05-.285 3.86-.858 5.433-.576 1.572-1.38 2.89-2.42 3.956-1.04 1.065-2.276 1.873-3.71 2.42-1.435.545-3.028.82-4.776.82zM839.54 172.854c1.203 0 2.316-.15 3.34-.453 1.026-.3 1.907-.73 2.646-1.293.74-.562 1.318-1.248 1.743-2.058.422-.81.634-1.734.634-2.777v-.082c0-1.945-.717-3.48-2.154-4.605-1.434-1.124-3.463-1.687-6.087-1.687h-9.8v12.956h9.677zm-11.808-14.882h12.053c1.778 0 3.348.253 4.716.758 1.367.506 2.488 1.196 3.363 2.07.683.684 1.215 1.483 1.6 2.4.382.915.573 1.892.573 2.93v.082c0 1.203-.21 2.276-.637 3.22-.424.942-1.012 1.756-1.762 2.438-.753.684-1.64 1.237-2.665 1.66-1.025.425-2.14.718-3.343.883l9.472 12.258h-2.707l-9.143-11.89h-9.388v11.89h-2.132v-28.698zM882.67 187.163c-2.052 0-3.952-.384-5.7-1.148-1.75-.765-3.26-1.81-4.53-3.137-1.27-1.325-2.262-2.89-2.973-4.694-.71-1.804-1.065-3.73-1.065-5.78v-.083c0-2.02.362-3.935 1.086-5.74.723-1.802 1.722-3.38 2.992-4.734 1.27-1.353 2.782-2.42 4.53-3.198 1.75-.78 3.662-1.168 5.74-1.168 1.285 0 2.445.11 3.485.327 1.04.22 2.002.534 2.892.943.887.41 1.72.896 2.5 1.456.78.56 1.537 1.183 2.275 1.866l-1.516 1.558c-.63-.602-1.286-1.162-1.97-1.682-.682-.52-1.414-.963-2.19-1.332-.78-.37-1.63-.662-2.544-.88-.915-.22-1.906-.33-2.972-.33-1.722 0-3.322.33-4.798.984-1.475.656-2.754 1.566-3.833 2.727-1.08 1.162-1.927 2.52-2.543 4.08-.615 1.557-.923 3.238-.923 5.042v.08c0 1.805.314 3.493.943 5.065.63 1.572 1.483 2.938 2.563 4.1 1.08 1.162 2.358 2.077 3.833 2.746 1.476.67 3.076 1.006 4.798 1.006 2.078 0 3.882-.382 5.41-1.148 1.533-.765 3.02-1.872 4.47-3.32l1.436 1.393c-.765.74-1.552 1.416-2.358 2.03-.805.616-1.666 1.142-2.58 1.58-.918.437-1.91.777-2.975 1.024-1.065.246-2.227.37-3.484.37zM912.23 157.972h2.132v13.324h18.367v-13.324h2.13v28.7h-2.13v-13.45H914.36v13.45h-2.133v-28.7z" fill="#58595b"/><path d="M107.308 55.275v1.53h-25.44l90.506 49.78V58.996H130.42v-3.722h-23.112z" fill="#7ab7b0"/><path d="M.21 11.892l.423.232 76.454 42.05h30.22v1.316h23.112v-3.507h41.954V15.845c-.826.04-1.313.892-2.034 1.154-.328-.242-.628-.46-.898-.66l-2.462.237-.164.855-1.257-.068-.9-.905-.446-.453-1.395.83-.25 1.592c-.536-.547-.85-.867-1.166-1.187l-.846-.495-.912.382-.954-1.36c-.63.142-1.14-1.03-1.838-.17l-2.633.133-2.66-1.694c-.395-.557-.93-.805-1.668-.886l.098 3.12-2.212.833.003.002-1.333.78c-1.923.072-3.836.156-5.646.96-.446.197-1.026.077-1.534.165-.407.07-.798.235-1.196.357l-1.68.577c-1.235-1.42-2.762-1.706-4.33-1.66-.96 1.383-1.844 2.66-2.728 3.936l-1.808 1.232c-2.684-.032-2.684-.032-4.017-.936l.117-2.67 2.297-.297c-1.018-1.426.356-1.754.858-2.49.033-.642.296-1.324-.322-1.854-.417-.286-.818-.6-1.255-.853-.8-.462-1.622-.888-2.578-1.406-.17.17-.464.46-.666.66-.082 1.02.87 1.845-.036 2.753l-1.485.005-1.783-.188-1.84-1.773-1.258-.792-2.44 3.318c-.86.587-.25 1.218-.054 1.837l-.547.95.947.865c-.28.746.494 1.568-.166 2.286-.754.124-1.507.246-2.26.368l-.937-.005c-.85-.572-1.347-1.718-2.612-1.624-1.258-1.68-2.937-1.546-4.77-1.02l-1.09-1.326 1.016-3.693c-1.497.143-2.777.286-3.706 1.77l.31 2.687c-.518.243-1.232.88-1.653.725-1.416-.525-2.804-.05-4.19-.18-.5-.683-1.07-.42-1.548-.03-.743.606-1.495.547-2.123.29-.457-.91-.75-1.744-1.252-2.426-.493-.67-1.04-1.557-2.2-.975-.435 1.314.483 3.243-1.793 3.728l-1.155-.455-.8-.577-1.838-1.796c-1.142-1.31-2.283-2.622-3.424-3.934l-.804-1.36c.048-.925-.304-1.56-1.18-1.99-.79-.384-1.485-.96-2.24-1.422-.698-.426-1.43-.8-2.132-1.22-.665-.396-1.312-.822-1.763-1.107-.903.113-1.77.473-2.454.255-1.34-.426-2.116.156-2.887 1.04-.09.103-.268.13-.518.246l-1.43-.285L56.9 10.27c-.944-.212-1.84-.964-2.737-.017l-.51.904c-.778.608-1.08 1.855-2.377 1.764-1.586-.33-3.172-1.017-4.772-.002-.73-.977-.49-2.593-2.117-3.06-2.15.277-1.567 2.827-3.11 3.84l-.93.074c-.6.002-1.22-.094-1.797.027-1.246.26-2.38.02-3.447-.59-.784-.445-1.48-1.06-2.288-1.442-.758-.36-1.678-.394-2.407-.79-.72-.393-1.338-.526-2.112-.26-.48.167-1.02.16-1.513.23-1.773-1.618-3.644-2.89-5.996-3.48-.256.997-.545 1.776-.62 2.575-.032.344.382.73.593 1.095l.006 1.86c-.796.848-1.354 1.445-1.91 2.036l-2.457-.107c-.046-.73-.042-1.38-.14-2.01-.063-.396-.28-.768-.428-1.15L13.84 10.75c.78-.532 1.355-.865 1.863-1.28.78-.64 1.12-1.397.37-2.305-.54-.588-.426-1.165.03-1.737.68-.842.65-.994-.355-1.875l-1.3-1.85C13.917.57 12.937.244 11.785.234c-.258.04-.516.082-.956.15l.896 1.192.876.5c.368.667 1.517.8 1.28 1.88l-1.022 1.382-3.74.107C7.438 5.705 7.72 3.6 6.162 3.324c-.57.545-1.183 1.302-1.956 1.818-.845.565-1.838.908-2.796 1.36l.894 3.346L.21 11.892z" fill="#b7c247"/><path d="M179.388 51.983h39.29c-.042-1.13-.036-2.27-.27-3.378-.433-2.044-1.147-4.028-1.247-6.18-.058-1.264-.914-2.49-1.412-3.734-.387-1.032-.487-2.38-1.214-3.038-2.213-2-3.334-4.4-3.697-7.294-.057-.456-.705-.837-1.08-1.253l.008-.015c-.143-.58-.257-1.167-.437-1.734-.263-.83-.692-1.51-1.697-1.536-.99-.998-1.59-2.403-3.047-2.91l-.187-.78c-1.073-.154-1.78 1.15-2.89.444-.5-1.204 1.88-2.028.39-3.46-.27.16-.552.346-.847.507-.97.53-1.592 1.636-2.835 1.71-.13.01-.258 0-.385-.03-1.363-.884-.44-2.505-1.18-3.85-.323.406-.52.682-.746.93-1.56 1.706-2 1.747-3.912.385-1.373-.71-2.11.668-3.066 1.088-.857-.702-.343-2.41-2.098-2.174-.436.34-.96.75-1.574 1.232l-1.945-.085-.884-.498c-.186-1.82-1.527-1.992-3.038-2.375v38.028z" fill="#c96a2e"/><path d="M222.02 122.858c-.113-2.238-.32-4.477-.31-6.714.008-1.778-.126-3.523-.313-5.288-.172-1.625-.13-3.323.148-4.93.327-1.89.014-3.658-.376-5.457.242-2.634.58-5.287-1.353-7.288.042-.963.066-1.693.108-2.422.083-1.465-.02-2.973.306-4.383.6-2.604.354-5.055-.72-7.455-.348-.78-.606-1.526-.23-2.385.084-.19-.11-.498-.186-.756h.002c.104-.658.177-1.324.318-1.975.285-1.32.46-2.632-.007-3.947.492-2.5.52-4.972-.06-7.488-.256-1.107-.496-2.238-.49-3.373h-39.47v51.445l42.322 23.277c.02-.434.12-.89.16-1.324.055-.588.42-1.428.16-1.714-1.04-1.15-.684-2.553-.972-3.85 1.21-1.098 1.72-2.384.962-3.974z" fill="#8fb43e"/><path d="M226.368 183.417l.733-1.56c-.274-1.316-.72-2.413-.68-3.494.072-1.995-1.007-3.73-1.033-5.686-.012-.87-.405-1.73-.447-2.605-.053-1.123.074-2.256.118-3.268l-1.383-2.64c1.208-1.237 1.17-2.608.453-4.057-.15-.303-.018-.743-.017-1.12.334-.847-.24-1.505-.416-2.257-.524-2.24-.963-4.505-1.287-6.78-.11-.785.257-1.628.323-2.45.047-.592-.032-1.197-.078-1.794-.062-.812-.298-1.643-.194-2.43.28-2.1.216-4.16-.112-6.205l-42.958-23.626v45.27h-3.717l-.102 23.826h1.218v18.21c.28-.142.553-.31.83-.492.672.015 1.2-.183 1.355-.925-.178-.457-.487-.857-.117-1.416.22-.332.19-.827.274-1.248l.14-1.76c.57.15 1.138.302 1.7.452l1.903-.77c.61.317 1.204.628 1.8.94.384.353 1.027.655 1.11 1.07.378 1.866 1.88 3.027 2.696 4.604l.022-.025.837 1.856c-.035 1.447.034 2.945 1.216 3.92.977.803 1.734 1.766 2.568 2.678l.383.905c-.12 1.183.78 1.855 1.36 2.97l1.936-1.164 3.225.356c1.355 1.75 2.96.758 4.613.19l.433-1.487c.78-.874 1.517.62 2.14-.3l.03.038 1.79-.15c.034-.818.063-1.484.093-2.16.67-.427 1.288-.818 2.06-1.308l1.113 1.993c2.906.124 5.514-.892 8.162-2.29.538-1.022.494-1.018.398-2.088-.11-1.246-.405-2.535.47-3.74l1.915-.184c.334-.54.604-1.062.953-1.524.512-.675.706-1.313.026-1.984l.567-7.208 1.598-.887.835-.55-.847-5.646z" fill="#cb3a61"/><path d="M92.79 211.584l.414-.66-.414.66zm81.366-29.044h1.315v-23.825h-3.096v-49.13l-95.962-52.78H6.546l.014.163c-.58.733-.622 1.49-.095 2.268.294 1.846 1.563 2.893 3.07 3.745l-.016.003c-.055 1.19-.41 2.468-.094 3.55.516 1.764-.157 3.155-.762 4.64-1.085.294-1.14.44-.506 1.356.144.158.287.318.43.477-.45.745-.904 1.49-1.442 2.377.348.52.75 1.12 1.126 1.686l-.356 1.77 1.245-.97c-.04.963-.068 1.586-.106 2.45l-.74-.83c-.453.666-.986 1.35-1.384 2.102-.104.196.21.614.333.93l-.108 2.458 1.517-.046c.816 1.16-.713 1.217-.7 1.472l-.19 4.312c-.638 1.495-.744 3.922-.24 5.495.112.887.564 1.92.257 2.626-.446 1.02-.068 1.89-.093 2.82-.468 1.686-.776 3.337-.712 5.153.09 2.558.28 5.076.626 7.613.232 1.69-.05 3.38-.994 5.01-1.096 1.89-1.037 4.014-.053 5.724l-.455 4.712.428 6.363c.343.33.7.672 1.03.992l-.428.905c-.118.192-.282.37-.346.577-.36 1.185-.084 5.238.44 6.733.38 1.463.603 2.917.155 4.43-.134.45.077 1 .13 1.507l.354 1.32c-.436 1.287-.17 2.595-.053 3.886.023.263.488.486.75.727-.258.598-1.005 1.17-.097 1.83.022.138.034.275.036.414-.365 1.992.134 3.82 1.062 5.564.135.426.434.872.38 1.27-.396 2.954.745 5.728.95 8.607.03.414.282.813.43 1.22 0 .425 0 .85-.003 1.277-.6 1.064-.02 1.738.775 2.34.188 1.62.71 3.122 1.38 4.61.39.862.392 1.892.63 2.83.44 1.736 1 3.42 2.507 4.576l.26.996c.084 1.273.855 2.12 1.78 2.87.158.272.318.544.478.816-.01.303-.022.605-.033.908-.093 1.157.244 2.122 1.248 2.788l2.427.946 1.045 4.93 1.048.564 1.48-1.11c.934.042 1.748.078 2.505.11l.74.91c.043.65.265 1.16 1.098 1.337l3.523-2.5 1.592.255c.18-.672.33-1.23.46-1.724l1.842-1.322 1.728.27c.745.314 1.465 1.132 2.273.11.85-.106 1.736-.418 2.535-.267 1.154.217 2.264.188 3.4.06l.186.077.202.008.818.764.147 1.77c.78.7 1.436 1.285 2.037 1.822-.617 1.89.486 3.103 1.233 4.425.21 2.106.762 2.518 2.708 2.015l1.42.633c.692.823 1.26 1.5 1.732 2.058 1.403.363 2.703-.286 3.87.393.77 1.09 1.793 1.74 3.078 1.877.53-.412.988-.77 1.3-1.01 1.027.043 1.877.08 2.746.118.213-.768.397-1.434.64-2.32.67.442 1.135.774 1.624 1.06.508.3 1.032.637 1.633.185.64.18 1.282.36 2.095.59l1.67-2.304 2.426.634c1.022-.566 2.044-1.13 3.067-1.695.784-.41 1.568-.822 2.017-1.058 1.52-.182 2.685-.337 3.855-.45.365-.036.744.018 1.11.075 1.02.158 2.034.34 3.05.51l2.163 1.872c1.66.12 1.205-1.504 2.212-2.046 1.256.163 2.222-.552 2.777-1.67l2.49-.02c.344.633.686 1.267 1.076 1.99.67-.335 1.128-.562 1.514-.754.247-.74.457-1.376.668-2.01l.887.04c-.07 1.037.682.93 1.336.96l1.177.885.642-.81 1.822-2.403 1.06.097.142-3.262 1.9-1.654 1.843-1.6c1.108-.115 1.444-1.327 2.386-1.678 1.382-.34 2.15.673 2.808 1.28l2.628-.2.19-.007.186.026c.272.25.654.45.795.76.376.833.97.79 1.664.603.04-1.417.04-1.417 1.638-1.594.16.156.317.313.475.47.34.633.682 1.265.96 1.78.352 0 .447.03.5-.006 1.205-.824 2.298-1.888 4.014-1.226.314.12.917-.376 1.325-.672.34-.245.587-.614.895-.95 1.07.444 1.5 2.032 3.086 1.322l1.235-3.853c.727.61 1.238 1.04 1.748 1.47h.002c.166 1.186 1.42 1.367 2.223 2.14l-.246-2.242 1.46-3.13c.586.41 1.117.785 1.648 1.158 1.256.785 2.556 1.534 2.658 3.26.772 2.758 2.66 4.274 6.11 4.748-.042-.602-.13-1.16-.097-1.713.017-.26.27-.505.528-.95l.98 1.96c.573.832 1.033 1.8 2.24 1.87 1.098.222 1.788-.337 2.317-1.206 1.17-.68 2.4-.374 3.622-.237l.718.422.552-2.085 3.352-.807.107-1.065 1.65-1.747c.487.055.972.018 1.376.09v-18.04z" fill="#58595b"/><path d="M.584 14.934l.044.542L2.78 18.55c-.258.632-.48 1.174-.7 1.716l-.01-.01c-1.458.18-1.54 1.18-1.395 2.4.94 1.167 2.386 2 2.838 3.63.232.837.624 1.63.944 2.443l.375 1.747c-.137.57-.534 1.235-.367 1.694.73 2.01.334 4.26 1.393 6.18.095 1.03.388 2.092.246 3.09-.328 2.307-.352 4.583.224 6.907h-.004l.323 5.37.04.49h65.3L.583 14.933z" fill="#d4a73b"/></g></svg>